{
	"asset":{
		"generator":"Khronos glTF Blender I/O v5.2.40",
		"version":"2.0"
	},
	"scene":0,
	"scenes":[
		{
			"name":"Scene",
			"nodes":[
				0,
				5
			]
		}
	],
	"nodes":[
		{
			"mesh":0,
			"name":"LotStick"
		},
		{
			"mesh":1,
			"name":"LotSeal",
			"rotation":[
				0.7071068286895752,
				0,
				0,
				0.7071068286895752
			],
			"translation":[
				0,
				0.7799999713897705,
				0.5350000262260437
			]
		},
		{
			"mesh":2,
			"name":"TubeBase",
			"translation":[
				0,
				0.03500000014901161,
				0
			]
		},
		{
			"mesh":3,
			"name":"TubeBody",
			"translation":[
				0,
				0.7900000214576721,
				0
			]
		},
		{
			"mesh":4,
			"name":"TubeRim",
			"translation":[
				0,
				1.600000023841858,
				0
			]
		},
		{
			"children":[
				1,
				2,
				3,
				4
			],
			"name":"LotTube"
		}
	],
	"materials":[
		{
			"doubleSided":true,
			"name":"LotStick_Baked",
			"normalTexture":{
				"index":0
			},
			"pbrMetallicRoughness":{
				"baseColorTexture":{
					"index":1
				},
				"metallicFactor":0,
				"metallicRoughnessTexture":{
					"index":2
				}
			}
		},
		{
			"doubleSided":true,
			"name":"LotSeal_Baked",
			"normalTexture":{
				"index":3
			},
			"pbrMetallicRoughness":{
				"baseColorTexture":{
					"index":4
				},
				"metallicFactor":0,
				"metallicRoughnessTexture":{
					"index":5
				}
			}
		},
		{
			"doubleSided":true,
			"name":"LotTube_Baked",
			"normalTexture":{
				"index":6
			},
			"pbrMetallicRoughness":{
				"baseColorTexture":{
					"index":7
				},
				"metallicFactor":0,
				"metallicRoughnessTexture":{
					"index":8
				}
			}
		}
	],
	"meshes":[
		{
			"name":"LotStickMesh",
			"primitives":[
				{
					"attributes":{
						"POSITION":0,
						"NORMAL":1,
						"TEXCOORD_0":2
					},
					"indices":3,
					"material":0
				}
			]
		},
		{
			"name":"LotSealMesh",
			"primitives":[
				{
					"attributes":{
						"POSITION":4,
						"NORMAL":5,
						"TEXCOORD_0":6
					},
					"indices":7,
					"material":1
				}
			]
		},
		{
			"name":"TubeBaseMesh",
			"primitives":[
				{
					"attributes":{
						"POSITION":8,
						"NORMAL":9,
						"TEXCOORD_0":10
					},
					"indices":11,
					"material":2
				}
			]
		},
		{
			"name":"TubeBodyMesh",
			"primitives":[
				{
					"attributes":{
						"POSITION":12,
						"NORMAL":13,
						"TEXCOORD_0":14
					},
					"indices":15,
					"material":2
				}
			]
		},
		{
			"name":"TubeRimMesh",
			"primitives":[
				{
					"attributes":{
						"POSITION":16,
						"NORMAL":17,
						"TEXCOORD_0":18
					},
					"indices":19,
					"material":2
				}
			]
		}
	],
	"textures":[
		{
			"sampler":0,
			"source":0
		},
		{
			"sampler":0,
			"source":1
		},
		{
			"sampler":0,
			"source":2
		},
		{
			"sampler":0,
			"source":3
		},
		{
			"sampler":0,
			"source":4
		},
		{
			"sampler":0,
			"source":5
		},
		{
			"sampler":0,
			"source":6
		},
		{
			"sampler":0,
			"source":7
		},
		{
			"sampler":0,
			"source":8
		}
	],
	"images":[
		{
			"mimeType":"image/png",
			"name":"LotStickNormal",
			"uri":"LotStickNormal.png"
		},
		{
			"mimeType":"image/png",
			"name":"LotStickAlbedo",
			"uri":"LotStickAlbedo.png"
		},
		{
			"mimeType":"image/png",
			"name":"LotStickRoughness",
			"uri":"LotStickRoughness.png"
		},
		{
			"mimeType":"image/png",
			"name":"LotSealNormal",
			"uri":"LotSealNormal.png"
		},
		{
			"mimeType":"image/png",
			"name":"LotSealAlbedo",
			"uri":"LotSealAlbedo.png"
		},
		{
			"mimeType":"image/png",
			"name":"LotSealRoughness",
			"uri":"LotSealRoughness.png"
		},
		{
			"mimeType":"image/png",
			"name":"LotTubeNormal",
			"uri":"LotTubeNormal.png"
		},
		{
			"mimeType":"image/png",
			"name":"LotTubeAlbedo",
			"uri":"LotTubeAlbedo.png"
		},
		{
			"mimeType":"image/png",
			"name":"LotTubeRoughness",
			"uri":"LotTubeRoughness.png"
		}
	],
	"accessors":[
		{
			"bufferView":0,
			"componentType":5126,
			"count":108,
			"max":[
				0.04136192426085472,
				0.8600000143051147,
				0.041999999433755875
			],
			"min":[
				-0.04136192426085472,
				-0.8600000143051147,
				-0.041999999433755875
			],
			"type":"VEC3"
		},
		{
			"bufferView":1,
			"componentType":5126,
			"count":108,
			"type":"VEC3"
		},
		{
			"bufferView":2,
			"componentType":5126,
			"count":108,
			"type":"VEC2"
		},
		{
			"bufferView":3,
			"componentType":5123,
			"count":204,
			"type":"SCALAR"
		},
		{
			"bufferView":4,
			"componentType":5126,
			"count":4,
			"max":[
				0.11999999731779099,
				0,
				0.11999999731779099
			],
			"min":[
				-0.11999999731779099,
				0,
				-0.11999999731779099
			],
			"type":"VEC3"
		},
		{
			"bufferView":5,
			"componentType":5126,
			"count":4,
			"type":"VEC3"
		},
		{
			"bufferView":6,
			"componentType":5126,
			"count":4,
			"type":"VEC2"
		},
		{
			"bufferView":7,
			"componentType":5123,
			"count":6,
			"type":"SCALAR"
		},
		{
			"bufferView":8,
			"componentType":5126,
			"count":384,
			"max":[
				0.5400000214576721,
				0.03500000014901161,
				0.5400000214576721
			],
			"min":[
				-0.5400000214576721,
				-0.03500000014901161,
				-0.5400000214576721
			],
			"type":"VEC3"
		},
		{
			"bufferView":9,
			"componentType":5126,
			"count":384,
			"type":"VEC3"
		},
		{
			"bufferView":10,
			"componentType":5126,
			"count":384,
			"type":"VEC2"
		},
		{
			"bufferView":11,
			"componentType":5123,
			"count":756,
			"type":"SCALAR"
		},
		{
			"bufferView":12,
			"componentType":5126,
			"count":256,
			"max":[
				0.5400000214576721,
				0.7900000214576721,
				0.5400000214576721
			],
			"min":[
				-0.5400000214576721,
				-0.7900000214576721,
				-0.5400000214576721
			],
			"type":"VEC3"
		},
		{
			"bufferView":13,
			"componentType":5126,
			"count":256,
			"type":"VEC3"
		},
		{
			"bufferView":14,
			"componentType":5126,
			"count":256,
			"type":"VEC2"
		},
		{
			"bufferView":15,
			"componentType":5123,
			"count":384,
			"type":"SCALAR"
		},
		{
			"bufferView":16,
			"componentType":5126,
			"count":6144,
			"max":[
				0.5579999685287476,
				0.02800000086426735,
				0.5579999685287476
			],
			"min":[
				-0.5579999685287476,
				-0.02800000086426735,
				-0.5579999685287476
			],
			"type":"VEC3"
		},
		{
			"bufferView":17,
			"componentType":5126,
			"count":6144,
			"type":"VEC3"
		},
		{
			"bufferView":18,
			"componentType":5126,
			"count":6144,
			"type":"VEC2"
		},
		{
			"bufferView":19,
			"componentType":5123,
			"count":9216,
			"type":"SCALAR"
		}
	],
	"bufferViews":[
		{
			"buffer":0,
			"byteLength":1296,
			"byteOffset":0,
			"target":34962
		},
		{
			"buffer":0,
			"byteLength":1296,
			"byteOffset":1296,
			"target":34962
		},
		{
			"buffer":0,
			"byteLength":864,
			"byteOffset":2592,
			"target":34962
		},
		{
			"buffer":0,
			"byteLength":408,
			"byteOffset":3456,
			"target":34963
		},
		{
			"buffer":0,
			"byteLength":48,
			"byteOffset":3864,
			"target":34962
		},
		{
			"buffer":0,
			"byteLength":48,
			"byteOffset":3912,
			"target":34962
		},
		{
			"buffer":0,
			"byteLength":32,
			"byteOffset":3960,
			"target":34962
		},
		{
			"buffer":0,
			"byteLength":12,
			"byteOffset":3992,
			"target":34963
		},
		{
			"buffer":0,
			"byteLength":4608,
			"byteOffset":4004,
			"target":34962
		},
		{
			"buffer":0,
			"byteLength":4608,
			"byteOffset":8612,
			"target":34962
		},
		{
			"buffer":0,
			"byteLength":3072,
			"byteOffset":13220,
			"target":34962
		},
		{
			"buffer":0,
			"byteLength":1512,
			"byteOffset":16292,
			"target":34963
		},
		{
			"buffer":0,
			"byteLength":3072,
			"byteOffset":17804,
			"target":34962
		},
		{
			"buffer":0,
			"byteLength":3072,
			"byteOffset":20876,
			"target":34962
		},
		{
			"buffer":0,
			"byteLength":2048,
			"byteOffset":23948,
			"target":34962
		},
		{
			"buffer":0,
			"byteLength":768,
			"byteOffset":25996,
			"target":34963
		},
		{
			"buffer":0,
			"byteLength":73728,
			"byteOffset":26764,
			"target":34962
		},
		{
			"buffer":0,
			"byteLength":73728,
			"byteOffset":100492,
			"target":34962
		},
		{
			"buffer":0,
			"byteLength":49152,
			"byteOffset":174220,
			"target":34962
		},
		{
			"buffer":0,
			"byteLength":18432,
			"byteOffset":223372,
			"target":34963
		}
	],
	"samplers":[
		{
			"magFilter":9729,
			"minFilter":9987
		}
	],
	"buffers":[
		{
			"byteLength":241804,
			"uri":"lot-tube.bin"
		}
	]
}
