<svg xmlns="http://www.w3.org/2000/svg" viewBox="0 0 200 160" fill="none" stroke="#3a2e1f" stroke-width="2.5" stroke-linecap="round" stroke-linejoin="round">
  <!-- 玉莲会十朋 · 古镜重圆：两瓣破镜复合为圆 -->
  <path d="M100 34 a44 44 0 0 1 0 88"/>
  <path d="M100 34 a44 44 0 0 0 0 88"/>
  <path d="M100 34 C 92 52, 108 66, 100 78 C 92 90, 106 106, 100 122"/>
  <circle cx="100" cy="78" r="30" opacity="0.4"/>
  <path d="M94 22 q 6 -8 12 0" />
  <circle cx="100" cy="14" r="3"/>
  <path d="M40 128 q 20 10 40 6 M120 134 q 22 2 40 -8" opacity="0.5"/>
  <path d="M60 44 l -8 -8 M148 44 l 8 -8" opacity="0.5"/>
</svg>
