{
	"asset":{
		"generator":"Khronos glTF Blender I/O v5.2.40",
		"version":"2.0"
	},
	"scene":0,
	"scenes":[
		{
			"name":"Scene",
			"nodes":[
				0,
				1,
				2
			]
		}
	],
	"nodes":[
		{
			"mesh":0,
			"name":"CupA",
			"translation":[
				-0.800000011920929,
				0.25,
				0
			]
		},
		{
			"mesh":0,
			"name":"CupB",
			"rotation":[
				0,
				0.10452847182750702,
				0,
				0.9945219159126282
			],
			"translation":[
				0.800000011920929,
				0.25,
				0
			]
		},
		{
			"mesh":0,
			"name":"JiaobeiCup"
		}
	],
	"materials":[
		{
			"doubleSided":true,
			"name":"JiaobeiWood",
			"normalTexture":{
				"index":0
			},
			"pbrMetallicRoughness":{
				"baseColorTexture":{
					"index":1
				},
				"metallicFactor":0,
				"metallicRoughnessTexture":{
					"index":2
				}
			}
		}
	],
	"meshes":[
		{
			"name":"JiaobeiCup",
			"primitives":[
				{
					"attributes":{
						"POSITION":0,
						"NORMAL":1,
						"TEXCOORD_0":2
					},
					"indices":3,
					"material":0
				}
			]
		}
	],
	"textures":[
		{
			"sampler":0,
			"source":0
		},
		{
			"sampler":0,
			"source":1
		},
		{
			"sampler":0,
			"source":2
		}
	],
	"images":[
		{
			"mimeType":"image/png",
			"name":"JiaobeiNormal",
			"uri":"JiaobeiNormal.png"
		},
		{
			"mimeType":"image/png",
			"name":"JiaobeiAlbedo",
			"uri":"JiaobeiAlbedo.png"
		},
		{
			"mimeType":"image/png",
			"name":"JiaobeiRoughness",
			"uri":"JiaobeiRoughness.png"
		}
	],
	"accessors":[
		{
			"bufferView":0,
			"componentType":5126,
			"count":2774,
			"max":[
				1.149999976158142,
				0.3050000071525574,
				0.8408176898956299
			],
			"min":[
				0.7845543622970581,
				-0.07500000298023224,
				-0.8408176898956299
			],
			"type":"VEC3"
		},
		{
			"bufferView":1,
			"componentType":5126,
			"count":2774,
			"type":"VEC3"
		},
		{
			"bufferView":2,
			"componentType":5126,
			"count":2774,
			"type":"VEC2"
		},
		{
			"bufferView":3,
			"componentType":5123,
			"count":16416,
			"type":"SCALAR"
		}
	],
	"bufferViews":[
		{
			"buffer":0,
			"byteLength":33288,
			"byteOffset":0,
			"target":34962
		},
		{
			"buffer":0,
			"byteLength":33288,
			"byteOffset":33288,
			"target":34962
		},
		{
			"buffer":0,
			"byteLength":22192,
			"byteOffset":66576,
			"target":34962
		},
		{
			"buffer":0,
			"byteLength":32832,
			"byteOffset":88768,
			"target":34963
		}
	],
	"samplers":[
		{
			"magFilter":9729,
			"minFilter":9987
		}
	],
	"buffers":[
		{
			"byteLength":121600,
			"uri":"jiaobei.bin"
		}
	]
}
